<svg width="15" height="13" viewBox="0 0 15 13" fill="none" xmlns="http://www.w3.org/2000/svg">
<path fill-rule="evenodd" clip-rule="evenodd" d="M9.33542 11.9604C9.06137 12.2184 8.80432 12.4387 8.59246 12.6117L8.26849 12.875H12.3896C13.616 12.875 14.6102 11.8808 14.6102 10.6544V5.06617C14.6102 3.83977 13.616 2.84558 12.3896 2.84558H10.7849L10.3215 1.73343C10.0726 1.13609 9.44395 0.749992 8.75264 0.749992H6.24725C5.55594 0.749992 4.9273 1.13609 4.67841 1.73343L4.21502 2.84558H2.61024C1.38384 2.84558 0.389648 3.83977 0.389648 5.06617V10.6544C0.389648 11.8808 0.898257 12.875 2.12465 12.875H6.56244L6.23842 12.6116C6.02658 12.4386 5.76955 12.2183 5.49551 11.9604L5.45941 11.9265H2.61024C1.9077 11.9265 1.33818 11.3569 1.33818 10.6544V5.06617C1.33818 4.36363 1.9077 3.79411 2.61024 3.79411H12.3896C13.0922 3.79411 13.6617 4.36363 13.6617 5.06617V10.6544C13.6617 11.3569 13.0922 11.9265 12.3896 11.9265H9.37152L9.33542 11.9604ZM5.63591 2.07486C5.72781 1.85428 5.96796 1.69852 6.24725 1.69852H8.75264C9.03192 1.69852 9.27207 1.85428 9.36398 2.07486L9.68511 2.84558H5.31477L5.63591 2.07486ZM10.1736 10.3084C9.72181 10.9365 9.17694 11.4948 8.70397 11.9265H8.70996L8.45789 12.1458C8.20441 12.3663 7.98344 12.5425 7.82564 12.6638C7.74672 12.7244 7.68355 12.7714 7.63996 12.8032C7.61817 12.8192 7.60126 12.8313 7.58972 12.8396L7.5765 12.849L7.57493 12.8501L7.50528 12.9063L7.49997 12.9026L7.49944 12.903L7.43259 12.8554L7.42801 12.8522L7.42743 12.8518L7.42535 12.8503L7.41747 12.8448L7.38746 12.8232C7.36133 12.8043 7.32323 12.7764 7.27487 12.7402C7.17816 12.6676 7.04036 12.5615 6.87515 12.4266C6.54493 12.1569 6.10424 11.7714 5.6631 11.3082C5.22232 10.8453 4.77859 10.3024 4.44449 9.71774C4.11072 9.13365 3.8823 8.50075 3.8823 7.86029C3.8823 5.86232 5.50197 4.24264 7.49994 4.24264C9.49791 4.24264 11.1176 5.86232 11.1176 7.86029C11.1176 8.72133 10.7048 9.57008 10.1736 10.3084ZM4.83082 7.86029C4.83082 6.38617 6.02583 5.19117 7.49994 5.19117C8.97405 5.19117 10.1691 6.38617 10.1691 7.86029C10.1691 8.27877 10.0175 8.74717 9.73184 9.24714C9.4483 9.74333 9.05883 10.2246 8.64992 10.654C8.24333 11.0809 7.83383 11.4395 7.52476 11.6919L7.49994 11.7121L7.47513 11.6919C7.16606 11.4395 6.75655 11.0809 6.34997 10.654C5.94105 10.2246 5.55158 9.74333 5.26804 9.24714C4.98235 8.74717 4.83082 8.27877 4.83082 7.86029ZM7.49991 9.25735C8.27149 9.25735 8.89697 8.63187 8.89697 7.86029C8.89697 7.08872 8.27149 6.46324 7.49991 6.46324C6.72834 6.46324 6.10285 7.08872 6.10285 7.86029C6.10285 8.63187 6.72834 9.25735 7.49991 9.25735ZM7.49991 9.95588C8.65727 9.95588 9.5955 9.01766 9.5955 7.86029C9.5955 6.70293 8.65727 5.76471 7.49991 5.76471C6.34255 5.76471 5.40432 6.70293 5.40432 7.86029C5.40432 9.01766 6.34255 9.95588 7.49991 9.95588Z" fill="#33CCFF"/>
</svg>
