<svg width="19" height="16" viewBox="0 0 19 16" fill="none" xmlns="http://www.w3.org/2000/svg">
<path fill-rule="evenodd" clip-rule="evenodd" d="M11.825 14.4166C11.4778 14.7433 11.1522 15.0223 10.8839 15.2415L10.4735 15.575H15.6937C17.2471 15.575 18.5064 14.3157 18.5064 12.7622V5.68381C18.5064 4.13038 17.2471 2.87107 15.6937 2.87107H13.6609L13.074 1.46235C12.7587 0.705721 11.9624 0.216658 11.0868 0.216658H7.91328C7.03762 0.216658 6.24135 0.705721 5.92608 1.46235L5.33912 2.87107H3.3064C1.75296 2.87107 0.493652 4.13038 0.493652 5.68381V12.7622C0.493652 14.3157 1.13789 15.575 2.69133 15.575H8.31252L7.9021 15.2414C7.63376 15.0223 7.30819 14.7432 6.96108 14.4166L6.91536 14.3735H3.3064C2.41652 14.3735 1.69512 13.6521 1.69512 12.7622V5.68381C1.69512 4.79393 2.41652 4.07254 3.3064 4.07254H15.6937C16.5835 4.07254 17.3049 4.79393 17.3049 5.68381V12.7622C17.3049 13.6521 16.5835 14.3735 15.6937 14.3735H11.8707L11.825 14.4166ZM7.13891 1.89482C7.25533 1.61542 7.55952 1.41813 7.91328 1.41813H11.0868C11.4405 1.41813 11.7447 1.61542 11.8611 1.89482L12.2679 2.87107H6.73214L7.13891 1.89482ZM12.8867 12.324C12.3144 13.1195 11.6242 13.8267 11.0251 14.3735H11.0327L10.7134 14.6513C10.3923 14.9306 10.1125 15.1539 9.91257 15.3075C9.81261 15.3843 9.7326 15.4437 9.67738 15.4841C9.64977 15.5043 9.62836 15.5197 9.61375 15.5301L9.597 15.5421L9.59501 15.5435L9.50679 15.6147L9.50006 15.6099L9.49938 15.6104L9.41471 15.5502L9.40891 15.5461L9.40818 15.5456L9.40554 15.5438L9.39556 15.5367L9.35754 15.5094C9.32445 15.4855 9.27619 15.4501 9.21493 15.4042C9.09243 15.3123 8.91788 15.1779 8.70862 15.007C8.29034 14.6654 7.73213 14.1771 7.17336 13.5903C6.61504 13.0041 6.05298 12.3164 5.62979 11.5758C5.20701 10.836 4.91767 10.0343 4.91767 9.22303C4.91767 6.69227 6.96926 4.64068 9.50002 4.64068C12.0308 4.64068 14.0824 6.69227 14.0824 9.22303C14.0824 10.3137 13.5595 11.3888 12.8867 12.324ZM6.11914 9.22303C6.11914 7.35582 7.63282 5.84215 9.50002 5.84215C11.3672 5.84215 12.8809 7.35582 12.8809 9.22303C12.8809 9.75311 12.689 10.3464 12.3271 10.9797C11.9679 11.6082 11.4746 12.2179 10.9567 12.7617C10.4417 13.3025 9.92295 13.7567 9.53146 14.0764L9.50002 14.1021L9.46859 14.0764C9.0771 13.7567 8.5584 13.3025 8.04339 12.7617C7.52543 12.2179 7.0321 11.6082 6.67296 10.9797C6.31107 10.3464 6.11914 9.75311 6.11914 9.22303ZM9.49999 10.9926C10.4773 10.9926 11.2696 10.2004 11.2696 9.22304C11.2696 8.24571 10.4773 7.45343 9.49999 7.45343C8.52266 7.45343 7.73038 8.24571 7.73038 9.22304C7.73038 10.2004 8.52266 10.9926 9.49999 10.9926ZM9.49999 11.8775C10.966 11.8775 12.1544 10.689 12.1544 9.22304C12.1544 7.75705 10.966 6.56863 9.49999 6.56863C8.034 6.56863 6.84557 7.75705 6.84557 9.22304C6.84557 10.689 8.034 11.8775 9.49999 11.8775Z" fill="#BBC7DB"/>
</svg>
