<svg width="19" height="19" viewBox="0 0 19 19" fill="none" xmlns="http://www.w3.org/2000/svg">
<path d="M3.27739 16.8739C3.12354 16.8821 2.96964 16.8587 2.82519 16.8051C2.68075 16.7515 2.54883 16.6689 2.43759 16.5623C1.86759 15.9923 2.18869 15.0176 2.56869 13.9023C2.71119 13.4805 2.94869 12.7813 2.92969 12.5514C2.19828 10.9955 2.0387 9.23165 2.47901 7.56978C2.91931 5.90792 3.93132 4.45444 5.33714 3.46483C6.74296 2.47522 8.45262 2.01282 10.1656 2.1589C11.8786 2.30498 13.4853 3.0502 14.7032 4.26356C15.9212 5.47693 16.6724 7.08078 16.825 8.7932C16.9775 10.5056 16.5216 12.217 15.5373 13.6266C14.553 15.0361 13.1034 16.0536 11.4432 16.5002C9.78297 16.9467 8.0185 16.7938 6.45989 16.0683C6.22999 16.0531 5.53079 16.2887 5.10899 16.4293C4.42119 16.6611 3.79989 16.8739 3.27739 16.8739ZM9.55879 3.45609C7.97209 3.4581 6.45095 4.08931 5.32898 5.21128C4.20701 6.33325 3.5758 7.85439 3.57379 9.44109C3.56959 10.328 3.76437 11.2045 4.14379 12.0061C4.41359 12.5761 4.15329 13.3361 3.82459 14.3184C3.68184 14.713 3.56318 15.1159 3.46929 15.5249C3.87827 15.431 4.28118 15.3123 4.67579 15.1696C5.65049 14.8409 6.41999 14.5806 6.98809 14.8504C7.78971 15.2298 8.66622 15.4246 9.55309 15.4204C11.1404 15.4204 12.6627 14.7898 13.7851 13.6674C14.9075 12.545 15.5381 11.0227 15.5381 9.43539C15.5381 7.84807 14.9075 6.32576 13.7851 5.20336C12.6627 4.08095 11.1404 3.45039 9.55309 3.45039L9.55879 3.45609Z" fill="#33CCFF"/>
<path d="M6.70928 10.3797C7.23395 10.3797 7.65928 9.95436 7.65928 9.42969C7.65928 8.90502 7.23395 8.47969 6.70928 8.47969C6.18461 8.47969 5.75928 8.90502 5.75928 9.42969C5.75928 9.95436 6.18461 10.3797 6.70928 10.3797Z" fill="#33CCFF"/>
<path d="M9.55889 10.3797C10.0836 10.3797 10.5089 9.95436 10.5089 9.42969C10.5089 8.90502 10.0836 8.47969 9.55889 8.47969C9.03422 8.47969 8.60889 8.90502 8.60889 9.42969C8.60889 9.95436 9.03422 10.3797 9.55889 10.3797Z" fill="#33CCFF"/>
<path d="M12.407 10.3797C12.9317 10.3797 13.357 9.95436 13.357 9.42969C13.357 8.90502 12.9317 8.47969 12.407 8.47969C11.8824 8.47969 11.457 8.90502 11.457 9.42969C11.457 9.95436 11.8824 10.3797 12.407 10.3797Z" fill="#33CCFF"/>
</svg>
