<svg width="21" height="15" viewBox="0 0 21 15" fill="none" xmlns="http://www.w3.org/2000/svg">
<path d="M10.5 0.9375C6.125 0.9375 2.38875 3.65875 0.875 7.5C2.38875 11.3412 6.125 14.0625 10.5 14.0625C14.875 14.0625 18.6112 11.3412 20.125 7.5C18.6112 3.65875 14.875 0.9375 10.5 0.9375ZM10.5 11.875C8.085 11.875 6.125 9.915 6.125 7.5C6.125 5.085 8.085 3.125 10.5 3.125C12.915 3.125 14.875 5.085 14.875 7.5C14.875 9.915 12.915 11.875 10.5 11.875ZM10.5 4.875C9.0475 4.875 7.875 6.0475 7.875 7.5C7.875 8.9525 9.0475 10.125 10.5 10.125C11.9525 10.125 13.125 8.9525 13.125 7.5C13.125 6.0475 11.9525 4.875 10.5 4.875Z" fill="#BBC7DB"/>
</svg>
