<svg width="15" height="15" viewBox="0 0 15 15" fill="none" xmlns="http://www.w3.org/2000/svg">
<path d="M2.69394 11.0036L2.76923 10.778L2.64179 10.5772C2.07709 9.68775 1.75 8.63284 1.75 7.5C1.75 4.32436 4.32436 1.75 7.5 1.75C10.6756 1.75 13.25 4.32436 13.25 7.5C13.25 10.6756 10.6756 13.25 7.5 13.25C6.36737 13.25 5.31263 12.923 4.42324 12.3585L4.22255 12.2311L3.99705 12.3064L2.0412 12.9589L2.69394 11.0036Z" stroke="#33CCFF"/>
<mask id="path-2-outside-1" maskUnits="userSpaceOnUse" x="4" y="4" width="7" height="7" fill="black">
<rect fill="white" x="4" y="4" width="7" height="7"/>
<path d="M9.99985 8.74346V9.49616C10.0001 9.56604 9.98579 9.6352 9.95774 9.69923C9.92969 9.76325 9.88855 9.82072 9.83696 9.86796C9.78537 9.9152 9.72446 9.95117 9.65813 9.97355C9.59181 9.99594 9.52153 10.0043 9.4518 9.99796C8.6782 9.91407 7.93511 9.65025 7.28223 9.2277C6.6748 8.84248 6.15982 8.32851 5.77383 7.7223C5.34897 7.06775 5.08456 6.32252 5.00204 5.54699C4.99576 5.47761 5.00402 5.40768 5.0263 5.34166C5.04858 5.27564 5.08439 5.21497 5.13145 5.16352C5.17851 5.11206 5.23579 5.07096 5.29964 5.04281C5.3635 5.01466 5.43252 5.00009 5.50232 5.00002H6.25652C6.37853 4.99883 6.4968 5.04194 6.58931 5.12134C6.68182 5.20074 6.74224 5.311 6.75932 5.43157C6.79115 5.67245 6.85018 5.90897 6.9353 6.1366C6.96912 6.22641 6.97644 6.32401 6.95639 6.41783C6.93634 6.51166 6.88976 6.59779 6.82217 6.666L6.50289 6.98465C6.86077 7.61279 7.38189 8.13288 8.01128 8.49005L8.33056 8.17141C8.39891 8.10395 8.48521 8.05746 8.57922 8.03745C8.67324 8.01744 8.77103 8.02474 8.86101 8.0585C9.0891 8.14344 9.32608 8.20236 9.56744 8.23413C9.68956 8.25133 9.80109 8.31272 9.88082 8.40663C9.96054 8.50053 10.0029 8.62041 9.99985 8.74346Z"/>
</mask>
<path d="M9.99985 8.74346L9.00015 8.71861C8.99995 8.72689 8.99985 8.73517 8.99985 8.74346H9.99985ZM9.99985 9.49616H8.99984L8.99985 9.50023L9.99985 9.49616ZM9.4518 9.99796L9.34399 10.9921C9.34997 10.9928 9.35597 10.9934 9.36196 10.9939L9.4518 9.99796ZM7.28223 9.2277L7.82559 8.38815L7.81779 8.3832L7.28223 9.2277ZM5.77383 7.7223L6.6174 7.1852L6.61262 7.17784L5.77383 7.7223ZM5.00204 5.54699L4.00611 5.63717C4.00659 5.64238 4.0071 5.64759 4.00765 5.65279L5.00204 5.54699ZM5.50232 5.00002V4.00002L5.50138 4.00002L5.50232 5.00002ZM6.25652 5.00002V6.00007L6.26634 5.99998L6.25652 5.00002ZM6.75932 5.43157L7.75074 5.30055L7.74944 5.29135L6.75932 5.43157ZM6.9353 6.1366L5.99862 6.48682L5.99947 6.48908L6.9353 6.1366ZM6.82217 6.666L7.52858 7.37382L7.53252 7.36985L6.82217 6.666ZM6.50289 6.98465L5.79649 6.27684C5.47737 6.59532 5.41083 7.08795 5.63402 7.47968L6.50289 6.98465ZM8.01128 8.49005L7.51773 9.35977C7.90865 9.58161 8.39954 9.51537 8.71769 9.19786L8.01128 8.49005ZM8.33056 8.17141L7.62811 7.45965L7.62415 7.4636L8.33056 8.17141ZM8.86101 8.0585L8.50976 8.99479L8.51201 8.99563L8.86101 8.0585ZM9.56744 8.23413L9.70687 7.24386L9.69794 7.24268L9.56744 8.23413ZM8.99985 8.74346V9.49616H10.9998V8.74346H8.99985ZM8.99985 9.50023C8.99957 9.43056 9.01387 9.36166 9.04178 9.29795L10.8737 10.1005C10.9577 9.90875 11.0007 9.70152 10.9998 9.49209L8.99985 9.50023ZM9.04178 9.29795C9.06969 9.23424 9.11056 9.1772 9.16166 9.13042L10.5123 10.6055C10.6665 10.4642 10.7897 10.2923 10.8737 10.1005L9.04178 9.29795ZM9.16166 9.13042C9.21274 9.08364 9.27294 9.04814 9.33833 9.02607L9.97793 10.921C10.176 10.8542 10.358 10.7468 10.5123 10.6055L9.16166 9.13042ZM9.33833 9.02607C9.40373 9.00399 9.47296 8.99581 9.54163 9.00201L9.36196 10.9939C9.57009 11.0127 9.77989 10.9879 9.97793 10.921L9.33833 9.02607ZM9.55961 9.00379C8.94118 8.93673 8.34726 8.72583 7.82557 8.38819L6.73888 10.0672C7.52295 10.5747 8.41522 10.8914 9.34399 10.9921L9.55961 9.00379ZM7.81779 8.3832C7.33424 8.07654 6.92443 7.66749 6.61737 7.18522L4.9303 8.25937C5.3952 8.98954 6.01537 9.60842 6.74666 10.0722L7.81779 8.3832ZM6.61262 7.17784C6.27335 6.65515 6.06229 6.0602 5.99643 5.44118L4.00765 5.65279C4.10683 6.58484 4.42458 7.48034 4.93505 8.26675L6.61262 7.17784ZM5.99797 5.45681C6.00423 5.52598 5.99599 5.59567 5.9738 5.66141L4.0788 5.0219C4.01205 5.21969 3.98729 5.42923 4.00611 5.63717L5.99797 5.45681ZM5.9738 5.66141C5.95162 5.72715 5.916 5.78742 5.86934 5.83843L4.39356 4.4886C4.25278 4.64251 4.14555 4.82412 4.0788 5.0219L5.9738 5.66141ZM5.86934 5.83843C5.82269 5.88944 5.76602 5.93007 5.70302 5.95784L4.89627 4.12777C4.70556 4.21184 4.53433 4.33469 4.39356 4.4886L5.86934 5.83843ZM5.70302 5.95784C5.64002 5.98561 5.572 5.99996 5.50326 6.00002L5.50138 4.00002C5.29304 4.00022 5.08697 4.04371 4.89627 4.12777L5.70302 5.95784ZM5.50232 6.00002H6.25652V4.00002H5.50232V6.00002ZM6.26634 5.99998C6.14626 6.00116 6.02956 5.95874 5.93802 5.88017L7.24061 4.36252C6.96405 4.12515 6.61079 3.9965 6.2467 4.00007L6.26634 5.99998ZM5.93802 5.88017C5.84642 5.80155 5.78622 5.69203 5.7692 5.5718L7.74944 5.29135C7.69826 4.92998 7.51721 4.59993 7.24061 4.36252L5.93802 5.88017ZM5.76794 5.56259C5.80967 5.87838 5.88706 6.18843 5.99863 6.48682L7.87197 5.78639C7.81331 5.6295 7.77263 5.46653 7.7507 5.30056L5.76794 5.56259ZM5.99947 6.48908C5.96579 6.39966 5.95848 6.30238 5.97847 6.20886L7.93431 6.62681C7.9944 6.34563 7.97245 6.05316 7.87112 5.78413L5.99947 6.48908ZM5.97847 6.20886C5.99845 6.11535 6.04483 6.02977 6.11181 5.96216L7.53252 7.36985C7.73469 7.16581 7.87423 6.90798 7.93431 6.62681L5.97847 6.20886ZM6.11576 5.9582L5.79649 6.27684L7.2093 7.69246L7.52857 7.37381L6.11576 5.9582ZM5.63402 7.47968C6.0811 8.26439 6.73196 8.91385 7.51773 9.35977L8.50484 7.62034C8.03183 7.35191 7.64044 6.96119 7.37176 6.48961L5.63402 7.47968ZM8.71769 9.19786L9.03696 8.87922L7.62415 7.4636L7.30488 7.78224L8.71769 9.19786ZM9.03299 8.88316C8.96528 8.94998 8.88002 8.99583 8.78741 9.01554L8.37104 7.05936C8.0904 7.11909 7.83254 7.25792 7.62812 7.45966L9.03299 8.88316ZM8.78741 9.01554C8.6948 9.03525 8.59848 9.02807 8.50976 8.99478L9.21226 7.12222C8.94358 7.02142 8.65167 6.99963 8.37104 7.05936L8.78741 9.01554ZM8.51201 8.99563C8.81067 9.10685 9.12095 9.18399 9.43694 9.22558L9.69794 7.24268C9.53121 7.22074 9.36752 7.18004 9.21001 7.12138L8.51201 8.99563ZM9.42802 9.22437C9.30779 9.20744 9.19755 9.14694 9.11849 9.05382L10.6431 7.75943C10.4046 7.47849 10.0713 7.29522 9.70686 7.2439L9.42802 9.22437ZM9.11849 9.05382C9.03938 8.96064 8.9971 8.84135 9.00015 8.71861L10.9995 8.76831C11.0087 8.39948 10.8817 8.04043 10.6431 7.75943L9.11849 9.05382Z" fill="#33CCFF" mask="url(#path-2-outside-1)"/>
</svg>
